<?xml version="1.0" encoding="UTF-8"?>
<!DOCTYPE svg PUBLIC "-//W3C//DTD SVG 1.1//EN" "http://www.w3.org/Graphics/SVG/1.1/DTD/svg11.dtd">
<svg xmlns="http://www.w3.org/2000/svg" version="1.1" width="1251px" height="1405px" style="shape-rendering:geometricPrecision; text-rendering:geometricPrecision; image-rendering:optimizeQuality; fill-rule:evenodd; clip-rule:evenodd" xmlns:xlink="http://www.w3.org/1999/xlink">
<g><path style="opacity:0.999" fill="#3ddb84" d="M 855.5,517.5 C 701.833,518.833 548.167,518.833 394.5,517.5C 400.193,459.781 423.86,410.781 465.5,370.5C 479.25,357.263 494.584,346.096 511.5,337C 498.54,314.915 485.707,292.748 473,270.5C 471.337,261.833 474.837,258 483.5,259C 485.286,259.785 486.786,260.951 488,262.5C 501,284.833 514,307.167 527,329.5C 592.332,301.5 657.665,301.5 723,329.5C 735.667,307.5 748.333,285.5 761,263.5C 766.381,256.848 771.715,256.848 777,263.5C 777.667,265.833 777.667,268.167 777,270.5C 764.293,292.748 751.46,314.915 738.5,337C 807.777,377.187 846.777,437.354 855.5,517.5 Z"/></g>
<g><path style="opacity:0.995" fill="#073042" d="M 465.5,370.5 C 423.86,410.781 400.193,459.781 394.5,517.5C 369.498,517.667 344.498,517.5 319.5,517C 290.587,511.42 271.754,494.586 263,466.5C 261.281,459.069 259.781,451.735 258.5,444.5C 261.712,403.122 283.712,378.622 324.5,371C 371.499,370.5 418.499,370.333 465.5,370.5 Z"/></g>
<g><path style="opacity:1" fill="#fcfefd" d="M 514.5,414.5 C 533.472,414.779 540.639,424.113 536,442.5C 530.709,450.707 523.209,453.874 513.5,452C 501.113,445.844 497.613,436.344 503,423.5C 506.045,419.406 509.878,416.406 514.5,414.5 Z"/></g>
<g><path style="opacity:1" fill="#fcfefd" d="M 725.5,414.5 C 736.313,413.489 744.146,417.822 749,427.5C 751.013,445.153 743.18,453.319 725.5,452C 715.224,447.946 710.724,440.446 712,429.5C 714.263,422.407 718.763,417.407 725.5,414.5 Z"/></g>
<g><path style="opacity:1" fill="#4184f3" d="M 258.5,444.5 C 259.781,451.735 261.281,459.069 263,466.5C 271.754,494.586 290.587,511.42 319.5,517C 344.498,517.5 369.498,517.667 394.5,517.5C 548.167,518.833 701.833,518.833 855.5,517.5C 876.197,517.114 896.864,517.614 917.5,519C 941.321,521.037 961.488,530.537 978,547.5C 988.226,561.429 992.726,577.096 991.5,594.5C 990.566,597.656 989.899,600.989 989.5,604.5C 982.901,634.931 964.234,653.097 933.5,659C 919.833,659.333 906.167,659.667 892.5,660C 892,660.5 891.5,661 891,661.5C 890.107,783.165 889.607,904.832 889.5,1026.5C 862.5,1026.5 835.5,1026.5 808.5,1026.5C 767.314,939.961 725.981,853.461 684.5,767C 707.09,745.891 714.256,720.391 706,690.5C 696.24,666.737 678.74,652.571 653.5,648C 655.473,647.505 657.473,647.338 659.5,647.5C 659.667,632.163 659.5,616.83 659,601.5C 655.269,594.22 649.435,591.72 641.5,594C 639.34,595.332 637.34,596.832 635.5,598.5C 629.024,592.34 622.191,592.007 615,597.5C 614.581,598.672 613.915,599.672 613,600.5C 612.667,616.167 612.333,631.833 612,647.5C 582.458,653.039 563.792,670.372 556,699.5C 552.094,727.475 560.927,750.309 582.5,768C 542.452,854.591 501.785,940.757 460.5,1026.5C 412.128,1026.98 363.795,1026.48 315.5,1025C 283.411,1015.67 264.577,994.504 259,961.5C 258.5,789.167 258.333,616.834 258.5,444.5 Z"/></g>
<g><path style="opacity:0.998" fill="#073042" d="M 635.5,598.5 C 635.987,599.473 636.487,600.473 637,601.5C 637.5,617.497 637.667,633.497 637.5,649.5C 664.51,657.344 681.01,675.01 687,702.5C 689.514,718.931 686.514,734.264 678,748.5C 673.196,754.971 668.029,761.137 662.5,767C 703.805,853.774 745.472,940.274 787.5,1026.5C 797.653,1047.47 807.82,1068.47 818,1089.5C 825.862,1107.86 822.362,1123.69 807.5,1137C 792.323,1145.9 777.323,1145.57 762.5,1136C 760.667,1134.17 758.833,1132.33 757,1130.5C 739.355,1096.21 722.521,1061.54 706.5,1026.5C 686.935,985.036 667.101,943.703 647,902.5C 643.448,897.767 638.948,894.434 633.5,892.5C 620.326,887.608 609.16,890.608 600,901.5C 579.958,942.917 560.458,984.583 541.5,1026.5C 525.347,1060.81 509.181,1095.14 493,1129.5C 482.451,1143.46 468.618,1148.3 451.5,1144C 435.56,1137.8 426.893,1126.14 425.5,1109C 426.141,1102.93 427.641,1097.1 430,1091.5C 440.462,1069.94 450.628,1048.27 460.5,1026.5C 501.785,940.757 542.452,854.591 582.5,768C 560.927,750.309 552.094,727.475 556,699.5C 563.792,670.372 582.458,653.039 612,647.5C 612.333,631.833 612.667,616.167 613,600.5C 613.915,599.672 614.581,598.672 615,597.5C 622.191,592.007 629.024,592.34 635.5,598.5 Z"/></g>
<g><path style="opacity:1" fill="#376fb1" d="M 808.5,1026.5 C 801.5,1026.5 794.5,1026.5 787.5,1026.5C 745.472,940.274 703.805,853.774 662.5,767C 668.029,761.137 673.196,754.971 678,748.5C 686.514,734.264 689.514,718.931 687,702.5C 681.01,675.01 664.51,657.344 637.5,649.5C 637.667,633.497 637.5,617.497 637,601.5C 636.487,600.473 635.987,599.473 635.5,598.5C 637.34,596.832 639.34,595.332 641.5,594C 649.435,591.72 655.269,594.22 659,601.5C 659.5,616.83 659.667,632.163 659.5,647.5C 657.473,647.338 655.473,647.505 653.5,648C 678.74,652.571 696.24,666.737 706,690.5C 714.256,720.391 707.09,745.891 684.5,767C 725.981,853.461 767.314,939.961 808.5,1026.5 Z"/></g>
<g><path style="opacity:0.753" fill="#1a4b7d" d="M 991.5,594.5 C 991.5,738.5 991.5,882.5 991.5,1026.5C 990.833,885.833 990.167,745.167 989.5,604.5C 989.899,600.989 990.566,597.656 991.5,594.5 Z"/></g>
<g><path style="opacity:0.999" fill="#073042" d="M 989.5,604.5 C 990.167,745.167 990.833,885.833 991.5,1026.5C 991.667,1045.84 991.5,1065.17 991,1084.5C 987.237,1110.53 973.403,1129.03 949.5,1140C 937.489,1143.91 925.155,1145.41 912.5,1144.5C 905.5,1144.33 898.5,1144.17 891.5,1144C 891,1143.5 890.5,1143 890,1142.5C 889.5,1103.83 889.333,1065.17 889.5,1026.5C 889.607,904.832 890.107,783.165 891,661.5C 891.5,661 892,660.5 892.5,660C 906.167,659.667 919.833,659.333 933.5,659C 964.234,653.097 982.901,634.931 989.5,604.5 Z"/></g>
<g><path style="opacity:1" fill="#376fb0" d="M 630.5,674.5 C 606.006,685.493 597.839,703.826 606,729.5C 611.112,740.446 619.278,748.112 630.5,752.5C 609.448,756.559 593.948,748.892 584,729.5C 576.334,704.664 584.168,686.497 607.5,675C 615.296,672.053 622.963,671.886 630.5,674.5 Z"/></g>
<g><path style="opacity:1" fill="#4184f3" d="M 630.5,674.5 C 650.594,679.666 660.927,692.666 661.5,713.5C 660.933,734.314 650.6,747.314 630.5,752.5C 619.278,748.112 611.112,740.446 606,729.5C 597.839,703.826 606.006,685.493 630.5,674.5 Z"/></g>
<g><path style="opacity:1" fill="#376fb1" d="M 633.5,892.5 C 628.631,894.859 624.465,898.193 621,902.5C 601.581,943.674 582.414,985.007 563.5,1026.5C 556.167,1026.5 548.833,1026.5 541.5,1026.5C 560.458,984.583 579.958,942.917 600,901.5C 609.16,890.608 620.326,887.608 633.5,892.5 Z"/></g>
<g><path style="opacity:1" fill="#4184f3" d="M 633.5,892.5 C 638.948,894.434 643.448,897.767 647,902.5C 667.101,943.703 686.935,985.036 706.5,1026.5C 658.833,1026.5 611.167,1026.5 563.5,1026.5C 582.414,985.007 601.581,943.674 621,902.5C 624.465,898.193 628.631,894.859 633.5,892.5 Z"/></g>
</svg>
