<?xml version="1.0" encoding="UTF-8"?>
<!DOCTYPE svg PUBLIC "-//W3C//DTD SVG 1.1//EN" "http://www.w3.org/Graphics/SVG/1.1/DTD/svg11.dtd">
<svg xmlns="http://www.w3.org/2000/svg" version="1.1" width="694px" height="300px" style="shape-rendering:geometricPrecision; text-rendering:geometricPrecision; image-rendering:optimizeQuality; fill-rule:evenodd; clip-rule:evenodd" xmlns:xlink="http://www.w3.org/1999/xlink">
<g><path style="opacity:0.384" fill="#888888" d="M 431.5,13.5 C 429.5,13.5 427.5,13.5 425.5,13.5C 427.406,11.0062 429.406,11.0062 431.5,13.5 Z"/></g>
<g><path style="opacity:0.998" fill="#fafafa" d="M 425.5,13.5 C 427.5,13.5 429.5,13.5 431.5,13.5C 432.514,14.6737 433.847,15.3404 435.5,15.5C 435.953,16.4584 436.619,17.2917 437.5,18C 444.652,21.0731 451.318,24.9065 457.5,29.5C 458.833,72.1667 458.833,114.833 457.5,157.5C 445.383,165.733 432.717,173.233 419.5,180C 418.619,180.708 417.953,181.542 417.5,182.5C 417.158,183.338 416.492,183.672 415.5,183.5C 412.214,184.207 408.881,184.54 405.5,184.5C 403.847,184.34 402.514,183.674 401.5,182.5C 398.517,178.536 394.517,176.203 389.5,175.5C 388.393,173.031 386.393,172.031 383.5,172.5C 382.952,169.916 381.285,168.916 378.5,169.5C 376.853,166.336 374.186,164.67 370.5,164.5C 368.178,162.336 365.511,160.669 362.5,159.5C 361.359,140.877 361.192,122.21 362,103.5C 363.936,101.746 365.77,100.079 367.5,98.5C 369.848,98.4077 371.514,97.4077 372.5,95.5C 374.848,95.4077 376.514,94.4077 377.5,92.5C 382.239,91.1413 386.239,88.8079 389.5,85.5C 393.805,85.0181 397.139,83.0181 399.5,79.5C 402.216,79.6138 404.216,78.6138 405.5,76.5C 408.881,76.4595 412.214,76.7929 415.5,77.5C 416.634,80.0338 418.634,81.3671 421.5,81.5C 422.5,81.5 423.5,81.5 424.5,81.5C 424.5,59.5 424.5,37.5 424.5,15.5C 424.328,14.5084 424.662,13.8417 425.5,13.5 Z M 413.5,115.5 C 414.514,116.674 415.847,117.34 417.5,117.5C 417.973,118.906 418.973,119.573 420.5,119.5C 421.172,120.267 422.005,120.934 423,121.5C 423.499,127.491 423.666,133.491 423.5,139.5C 420.489,140.669 417.822,142.336 415.5,144.5C 414.508,144.328 413.842,144.662 413.5,145.5C 411.218,146.39 408.885,146.556 406.5,146C 404.186,144.733 401.852,143.566 399.5,142.5C 399.158,141.662 398.492,141.328 397.5,141.5C 397.189,140.522 396.522,139.855 395.5,139.5C 394.167,133.5 394.167,127.5 395.5,121.5C 396.522,121.145 397.189,120.478 397.5,119.5C 400.447,118.027 403.447,116.527 406.5,115C 408.885,114.444 411.218,114.61 413.5,115.5 Z"/></g>
<g><path style="opacity:0.11" fill="#656565" d="M 431.5,13.5 C 433.38,13.2291 434.713,13.8958 435.5,15.5C 433.847,15.3404 432.514,14.6737 431.5,13.5 Z"/></g>
<g><path style="opacity:0.046" fill="#383838" d="M 424.5,15.5 C 424.5,37.5 424.5,59.5 424.5,81.5C 423.5,81.5 422.5,81.5 421.5,81.5C 421.5,81.1667 421.5,80.8333 421.5,80.5C 423.163,59.0193 424.163,37.3526 424.5,15.5 Z"/></g>
<g><path style="opacity:0.192" fill="#737373" d="M 435.5,15.5 C 442.271,18.7196 448.937,22.2196 455.5,26C 456.823,26.8159 457.489,27.9826 457.5,29.5C 451.318,24.9065 444.652,21.0731 437.5,18C 436.619,17.2917 435.953,16.4584 435.5,15.5 Z"/></g>
<g><path style="opacity:0.278" fill="#7c7c7c" d="M 535.5,78.5 C 532.53,77.7884 529.697,76.7884 527,75.5C 522.936,77.3904 518.769,79.0571 514.5,80.5C 518.018,77.1803 522.184,74.847 527,73.5C 530.293,74.5565 533.126,76.2231 535.5,78.5 Z"/></g>
<g><path style="opacity:0.996" fill="#fafafa" d="M 177.5,74.5 C 179.756,77.4053 182.756,79.072 186.5,79.5C 198.13,87.321 210.13,94.6543 222.5,101.5C 223.338,101.842 223.672,102.508 223.5,103.5C 223.667,125.836 223.5,148.169 223,170.5C 222.196,171.804 221.029,172.471 219.5,172.5C 217.423,171.063 215.09,170.396 212.5,170.5C 212.586,169.504 212.252,168.671 211.5,168C 209.482,167.495 207.482,166.995 205.5,166.5C 204.191,163.549 201.857,162.216 198.5,162.5C 197.341,160.75 195.674,159.75 193.5,159.5C 192.833,158.167 191.833,157.167 190.5,156.5C 190.667,144.829 190.5,133.162 190,121.5C 189.578,119.574 188.411,118.574 186.5,118.5C 186.027,117.094 185.027,116.427 183.5,116.5C 182.461,114.469 180.795,113.136 178.5,112.5C 175.813,112.336 173.146,112.503 170.5,113C 168.779,114.527 166.779,115.527 164.5,116C 162.937,116.759 161.937,117.926 161.5,119.5C 159.521,131.12 158.854,143.12 159.5,155.5C 156.721,157.861 154.054,160.194 151.5,162.5C 147.778,162.861 144.778,164.528 142.5,167.5C 139.386,167.555 137.052,168.888 135.5,171.5C 133.62,171.229 132.287,171.896 131.5,173.5C 129.006,175.077 127.173,174.41 126,171.5C 125.333,148.5 125.333,125.5 126,102.5C 126.278,101.584 126.778,100.918 127.5,100.5C 131.208,100.288 133.874,98.6217 135.5,95.5C 137.848,95.4077 139.514,94.4077 140.5,92.5C 142.933,92.7271 144.599,91.7271 145.5,89.5C 146.552,89.6495 147.552,89.4828 148.5,89C 150.859,87.7575 152.859,86.2575 154.5,84.5C 158.102,84.3076 161.102,82.9743 163.5,80.5C 167.744,77.5294 172.41,75.5294 177.5,74.5 Z"/></g>
<g><path style="opacity:0.137" fill="#6f6f6f" d="M 177.5,74.5 C 180.76,75.7738 183.76,77.4405 186.5,79.5C 182.756,79.072 179.756,77.4053 177.5,74.5 Z"/></g>
<g><path style="opacity:0.388" fill="#7e7e7e" d="M 415.5,77.5 C 412.214,76.7929 408.881,76.4595 405.5,76.5C 408.947,74.1773 412.281,74.5106 415.5,77.5 Z"/></g>
<g><path style="opacity:0.999" fill="#fbfbfb" d="M 535.5,78.5 C 536.492,78.3284 537.158,78.6618 537.5,79.5C 539.756,82.4053 542.756,84.072 546.5,84.5C 546.973,85.9063 547.973,86.573 549.5,86.5C 550.492,86.3284 551.158,86.6618 551.5,87.5C 552.716,89.4509 554.382,90.9509 556.5,92C 559.706,93.7694 563.039,95.2694 566.5,96.5C 566.833,96.5 567.167,96.5 567.5,96.5C 569.5,98.9326 571.667,101.266 574,103.5C 574.499,107.486 574.666,111.486 574.5,115.5C 575.686,116.961 575.686,118.295 574.5,119.5C 570.618,121.934 566.952,124.601 563.5,127.5C 558.835,128.828 554.835,131.161 551.5,134.5C 551.158,135.338 550.492,135.672 549.5,135.5C 546.833,136.833 544.167,136.833 541.5,135.5C 541.828,130.125 541.495,124.792 540.5,119.5C 539.583,118.873 538.583,118.539 537.5,118.5C 535.847,118.34 534.514,117.674 533.5,116.5C 530.84,112.83 527.174,111.663 522.5,113C 521.748,113.671 521.414,114.504 521.5,115.5C 521.158,116.338 520.492,116.672 519.5,116.5C 516.188,116.149 513.855,117.482 512.5,120.5C 511.545,126.409 511.211,132.409 511.5,138.5C 511.369,139.376 511.702,140.043 512.5,140.5C 514.662,142.02 516.995,143.02 519.5,143.5C 524.177,147.509 529.511,150.509 535.5,152.5C 535.369,153.376 535.702,154.043 536.5,154.5C 541.443,157.141 546.443,159.474 551.5,161.5C 551.787,163.121 552.787,164.121 554.5,164.5C 555.614,165.723 555.781,167.056 555,168.5C 551.744,170.879 548.244,172.879 544.5,174.5C 543.702,174.957 543.369,175.624 543.5,176.5C 538.952,178.107 534.619,180.274 530.5,183C 527.112,183.659 523.779,183.492 520.5,182.5C 518.222,179.528 515.222,177.861 511.5,177.5C 509.468,174.144 506.468,172.477 502.5,172.5C 501.341,170.75 499.674,169.75 497.5,169.5C 495.127,165.977 491.794,163.977 487.5,163.5C 485.847,163.34 484.514,162.674 483.5,161.5C 481.107,159.264 479.273,156.597 478,153.5C 477.5,137.503 477.333,121.503 477.5,105.5C 477.5,105.167 477.5,104.833 477.5,104.5C 479.5,102.5 481.5,100.5 483.5,98.5C 485.848,98.4077 487.514,97.4077 488.5,95.5C 493.462,94.69 497.462,92.3567 500.5,88.5C 503.326,88.0023 505.66,86.6689 507.5,84.5C 510.331,83.9213 512.664,82.588 514.5,80.5C 518.769,79.0571 522.936,77.3904 527,75.5C 529.697,76.7884 532.53,77.7884 535.5,78.5 Z"/></g>
<g><path style="opacity:0.298" fill="#838383" d="M 177.5,74.5 C 172.41,75.5294 167.744,77.5294 163.5,80.5C 162.833,80.5 162.167,80.5 161.5,80.5C 164.598,78.1084 167.931,75.9417 171.5,74C 173.712,73.2109 175.712,73.3775 177.5,74.5 Z"/></g>
<g><path style="opacity:0.169" fill="#374f31" d="M 329.5,95.5 C 327.076,94.9695 324.743,94.1362 322.5,93C 313.771,87.3041 304.771,82.1375 295.5,77.5C 293.881,75.7615 291.881,75.2615 289.5,76C 284.807,79.2123 279.807,81.7123 274.5,83.5C 278.937,80.4411 283.603,77.6078 288.5,75C 290.5,74.3333 292.5,74.3333 294.5,75C 306.576,81.2658 318.242,88.0991 329.5,95.5 Z"/></g>
<g><path style="opacity:1" fill="#74ac61" d="M 295.5,77.5 C 296.071,78.9733 296.071,80.64 295.5,82.5C 295.141,84.7659 295.808,86.5993 297.5,88C 294.967,90.084 294.967,92.084 297.5,94C 297,94.5 296.5,95 296,95.5C 295.5,122.165 295.333,148.831 295.5,175.5C 296.873,175.343 298.207,175.51 299.5,176C 297.346,177.32 295.846,179.153 295,181.5C 293.51,182.728 292.01,182.728 290.5,181.5C 289.977,178.122 288.644,175.122 286.5,172.5C 287.652,167.015 287.818,161.349 287,155.5C 285.667,154.833 284.667,153.833 284,152.5C 283.73,149.776 283.23,147.109 282.5,144.5C 283.485,128.548 283.818,112.548 283.5,96.5C 284.5,96.5 285.5,96.5 286.5,96.5C 286.333,111.837 286.5,127.17 287,142.5C 287.47,125.128 287.636,107.961 287.5,91C 286.551,90.3828 285.718,90.5494 285,91.5C 284.517,90.552 284.351,89.552 284.5,88.5C 285.833,88.5 287.167,88.5 288.5,88.5C 288.5,86.8333 288.5,85.1667 288.5,83.5C 287.209,83.7373 286.209,83.404 285.5,82.5C 285.937,80.9256 286.937,79.7589 288.5,79C 290.92,78.7096 293.254,78.2096 295.5,77.5 Z"/></g>
<g><path style="opacity:0.137" fill="#717171" d="M 405.5,76.5 C 404.216,78.6138 402.216,79.6138 399.5,79.5C 401.181,77.9925 403.181,76.9925 405.5,76.5 Z"/></g>
<g><path style="opacity:0.525" fill="#8d8d8d" d="M 415.5,77.5 C 417.483,78.4706 419.483,79.4706 421.5,80.5C 421.5,80.8333 421.5,81.1667 421.5,81.5C 418.634,81.3671 416.634,80.0338 415.5,77.5 Z"/></g>
<g><path style="opacity:1" fill="#719b61" d="M 295.5,77.5 C 293.254,78.2096 290.92,78.7096 288.5,79C 286.937,79.7589 285.937,80.9256 285.5,82.5C 278.863,83.7133 272.529,85.7133 266.5,88.5C 268.822,86.336 271.489,84.6693 274.5,83.5C 279.807,81.7123 284.807,79.2123 289.5,76C 291.881,75.2615 293.881,75.7615 295.5,77.5 Z"/></g>
<g><path style="opacity:0.125" fill="#676767" d="M 514.5,80.5 C 512.664,82.588 510.331,83.9213 507.5,84.5C 509.336,82.412 511.669,81.0787 514.5,80.5 Z"/></g>
<g><path style="opacity:0.871" fill="#bdbdbd" d="M 161.5,80.5 C 162.167,80.5 162.833,80.5 163.5,80.5C 161.102,82.9743 158.102,84.3076 154.5,84.5C 156.336,82.412 158.669,81.0787 161.5,80.5 Z"/></g>
<g><path style="opacity:0.216" fill="#737373" d="M 537.5,79.5 C 540.76,80.7738 543.76,82.4405 546.5,84.5C 542.756,84.072 539.756,82.4053 537.5,79.5 Z"/></g>
<g><path style="opacity:0.659" fill="#929292" d="M 399.5,79.5 C 397.139,83.0181 393.805,85.0181 389.5,85.5C 392.494,83.0002 395.827,81.0002 399.5,79.5 Z"/></g>
<g><path style="opacity:0.075" fill="#5d5d5d" d="M 546.5,84.5 C 548.027,84.427 549.027,85.0937 549.5,86.5C 547.973,86.573 546.973,85.9063 546.5,84.5 Z"/></g>
<g><path style="opacity:0.086" fill="#747474" d="M 154.5,84.5 C 152.859,86.2575 150.859,87.7575 148.5,89C 147.552,89.4828 146.552,89.6495 145.5,89.5C 148.008,87.0764 151.008,85.4097 154.5,84.5 Z"/></g>
<g><path style="opacity:0.137" fill="#747474" d="M 186.5,79.5 C 197.259,85.0759 207.926,90.9092 218.5,97C 220.635,97.8763 221.969,99.3763 222.5,101.5C 210.13,94.6543 198.13,87.321 186.5,79.5 Z"/></g>
<g><path style="opacity:1" fill="#74b857" d="M 271.5,144.5 C 269.3,140.545 267.3,136.545 265.5,132.5C 267.258,134.141 268.758,136.141 270,138.5C 270.333,138.167 270.667,137.833 271,137.5C 271.5,123.504 271.667,109.504 271.5,95.5C 272.675,95.719 273.675,95.3857 274.5,94.5C 273.108,92.7697 271.441,91.4363 269.5,90.5C 273.178,89.4905 276.511,87.6572 279.5,85C 281.635,84.3653 283.635,84.6986 285.5,86C 282.86,88.6396 280.194,91.3063 277.5,94C 278,94.5 278.5,95 279,95.5C 279.266,113.515 279.766,131.515 280.5,149.5C 278.139,149.326 275.806,148.993 273.5,148.5C 273.843,146.517 273.176,145.183 271.5,144.5 Z"/></g>
<g><path style="opacity:0.173" fill="#6d6d6d" d="M 507.5,84.5 C 505.66,86.6689 503.326,88.0023 500.5,88.5C 502.336,86.412 504.669,85.0787 507.5,84.5 Z"/></g>
<g><path style="opacity:1" fill="#77b260" d="M 285.5,82.5 C 286.209,83.404 287.209,83.7373 288.5,83.5C 288.5,85.1667 288.5,86.8333 288.5,88.5C 287.167,88.5 285.833,88.5 284.5,88.5C 284.351,89.552 284.517,90.552 285,91.5C 285.718,90.5494 286.551,90.3828 287.5,91C 287.636,107.961 287.47,125.128 287,142.5C 286.5,127.17 286.333,111.837 286.5,96.5C 285.5,96.5 284.5,96.5 283.5,96.5C 283.818,112.548 283.485,128.548 282.5,144.5C 283.23,147.109 283.73,149.776 284,152.5C 284.667,153.833 285.667,154.833 287,155.5C 287.818,161.349 287.652,167.015 286.5,172.5C 280.972,163.444 275.972,154.111 271.5,144.5C 273.176,145.183 273.843,146.517 273.5,148.5C 275.806,148.993 278.139,149.326 280.5,149.5C 279.766,131.515 279.266,113.515 279,95.5C 278.5,95 278,94.5 277.5,94C 280.194,91.3063 282.86,88.6396 285.5,86C 283.635,84.6986 281.635,84.3653 279.5,85C 276.511,87.6572 273.178,89.4905 269.5,90.5C 266.058,91.6454 262.725,92.9787 259.5,94.5C 261.647,92.2632 263.98,90.2632 266.5,88.5C 272.529,85.7133 278.863,83.7133 285.5,82.5 Z"/></g>
<g><path style="opacity:0.125" fill="#7c7c7c" d="M 389.5,85.5 C 386.239,88.8079 382.239,91.1413 377.5,92.5C 381.164,89.6654 385.164,87.332 389.5,85.5 Z"/></g>
<g><path style="opacity:0.188" fill="#727272" d="M 551.5,87.5 C 557.005,89.7487 562.005,92.7487 566.5,96.5C 563.039,95.2694 559.706,93.7694 556.5,92C 554.382,90.9509 552.716,89.4509 551.5,87.5 Z"/></g>
<g><path style="opacity:0.396" fill="#7d7d7d" d="M 145.5,89.5 C 144.599,91.7271 142.933,92.7271 140.5,92.5C 141.899,91.1103 143.566,90.1103 145.5,89.5 Z"/></g>
<g><path style="opacity:0.737" fill="#898989" d="M 500.5,88.5 C 497.462,92.3567 493.462,94.69 488.5,95.5C 492.164,92.6654 496.164,90.332 500.5,88.5 Z"/></g>
<g><path style="opacity:1" fill="#6cbe48" d="M 255.5,115.5 C 255.649,114.448 255.483,113.448 255,112.5C 252.977,110.46 251.31,108.127 250,105.5C 249.252,103.16 249.752,101.16 251.5,99.5C 253.167,99.5 254.833,99.5 256.5,99.5C 256.5,98.5 256.5,97.5 256.5,96.5C 260.292,95.759 263.959,94.759 267.5,93.5C 266.378,99.803 265.045,105.97 263.5,112C 263.909,117.094 264.909,122.261 266.5,127.5C 264.856,127.714 263.356,127.38 262,126.5C 261.695,124.443 261.695,122.443 262,120.5C 260.748,118.999 259.748,117.332 259,115.5C 258.014,116.171 256.847,116.171 255.5,115.5 Z"/></g>
<g><path style="opacity:0.255" fill="#8f8f8f" d="M 140.5,92.5 C 139.514,94.4077 137.848,95.4077 135.5,95.5C 136.659,93.7497 138.326,92.7497 140.5,92.5 Z"/></g>
<g><path style="opacity:0.318" fill="#929292" d="M 377.5,92.5 C 376.514,94.4077 374.848,95.4077 372.5,95.5C 373.659,93.7497 375.326,92.7497 377.5,92.5 Z"/></g>
<g><path style="opacity:1" fill="#70ba4f" d="M 269.5,90.5 C 271.441,91.4363 273.108,92.7697 274.5,94.5C 273.675,95.3857 272.675,95.719 271.5,95.5C 271.667,109.504 271.5,123.504 271,137.5C 270.667,137.833 270.333,138.167 270,138.5C 268.758,136.141 267.258,134.141 265.5,132.5C 264.5,132.167 263.833,131.5 263.5,130.5C 260,125.985 257.333,120.985 255.5,115.5C 256.847,116.171 258.014,116.171 259,115.5C 259.748,117.332 260.748,118.999 262,120.5C 261.695,122.443 261.695,124.443 262,126.5C 263.356,127.38 264.856,127.714 266.5,127.5C 264.909,122.261 263.909,117.094 263.5,112C 265.045,105.97 266.378,99.803 267.5,93.5C 263.959,94.759 260.292,95.759 256.5,96.5C 256.5,97.5 256.5,98.5 256.5,99.5C 254.833,99.5 253.167,99.5 251.5,99.5C 253.632,97.0453 256.299,95.3786 259.5,94.5C 262.725,92.9787 266.058,91.6454 269.5,90.5 Z"/></g>
<g><path style="opacity:1" fill="#6da45f" d="M 295.5,82.5 C 297.505,85.4655 300.005,88.1322 303,90.5C 303.257,94.77 304.424,98.77 306.5,102.5C 304.898,105.237 304.064,108.237 304,111.5C 303.5,130.164 303.333,148.83 303.5,167.5C 305.831,167.498 307.831,168.331 309.5,170C 307.963,171.11 307.297,172.61 307.5,174.5C 305.027,174.088 303.694,175.088 303.5,177.5C 300.737,179.08 298.07,180.913 295.5,183C 292.854,183.497 290.187,183.664 287.5,183.5C 287.5,182.833 287.5,182.167 287.5,181.5C 288.5,181.5 289.5,181.5 290.5,181.5C 292.01,182.728 293.51,182.728 295,181.5C 295.846,179.153 297.346,177.32 299.5,176C 298.207,175.51 296.873,175.343 295.5,175.5C 295.333,148.831 295.5,122.165 296,95.5C 296.5,95 297,94.5 297.5,94C 294.967,92.084 294.967,90.084 297.5,88C 295.808,86.5993 295.141,84.7659 295.5,82.5 Z"/></g>
<g><path style="opacity:1" fill="#659d5a" d="M 295.5,77.5 C 304.771,82.1375 313.771,87.3041 322.5,93C 324.743,94.1362 327.076,94.9695 329.5,95.5C 329.937,97.0744 330.937,98.2411 332.5,99C 334.519,99.4497 336.352,100.283 338,101.5C 338.829,120.338 338.662,139.005 337.5,157.5C 337.667,139.497 337.5,121.497 337,103.5C 335.118,107.869 333.118,112.203 331,116.5C 328.744,119.149 326.577,121.816 324.5,124.5C 322.956,124.297 321.622,123.63 320.5,122.5C 319.743,119.868 319.41,117.368 319.5,115C 316.517,112.782 314.85,113.616 314.5,117.5C 315.23,134.158 315.897,150.825 316.5,167.5C 317.791,167.263 318.791,167.596 319.5,168.5C 314.167,171.5 308.833,174.5 303.5,177.5C 303.694,175.088 305.027,174.088 307.5,174.5C 307.297,172.61 307.963,171.11 309.5,170C 307.831,168.331 305.831,167.498 303.5,167.5C 303.333,148.83 303.5,130.164 304,111.5C 304.064,108.237 304.898,105.237 306.5,102.5C 304.424,98.77 303.257,94.77 303,90.5C 300.005,88.1322 297.505,85.4655 295.5,82.5C 296.071,80.64 296.071,78.9733 295.5,77.5 Z"/></g>
<g><path style="opacity:0.318" fill="#959595" d="M 372.5,95.5 C 371.514,97.4077 369.848,98.4077 367.5,98.5C 368.659,96.7497 370.326,95.7497 372.5,95.5 Z"/></g>
<g><path style="opacity:0.247" fill="#7c7c7c" d="M 488.5,95.5 C 487.514,97.4077 485.848,98.4077 483.5,98.5C 484.659,96.7497 486.326,95.7497 488.5,95.5 Z"/></g>
<g><path style="opacity:0.843" fill="#a8a8a8" d="M 135.5,95.5 C 133.874,98.6217 131.208,100.288 127.5,100.5C 129.484,97.8361 132.151,96.1695 135.5,95.5 Z"/></g>
<g><path style="opacity:0.349" fill="#606060" d="M 567.5,96.5 C 570.838,97.4231 573.338,99.4231 575,102.5C 575.814,107.02 575.647,111.354 574.5,115.5C 574.666,111.486 574.499,107.486 574,103.5C 571.667,101.266 569.5,98.9326 567.5,96.5 Z"/></g>
<g><path style="opacity:0.255" fill="#6d6d6d" d="M 483.5,98.5 C 481.5,100.5 479.5,102.5 477.5,104.5C 478.167,101.167 480.167,99.1667 483.5,98.5 Z"/></g>
<g><path style="opacity:0.068" fill="#3b3b3b" d="M 477.5,105.5 C 477.333,121.503 477.5,137.503 478,153.5C 479.273,156.597 481.107,159.264 483.5,161.5C 480.151,160.316 477.985,157.983 477,154.5C 476.172,137.995 476.338,121.661 477.5,105.5 Z"/></g>
<g><path style="opacity:0.194" fill="#3e5c3c" d="M 329.5,95.5 C 333.189,97.0969 336.689,99.0969 340,101.5C 340.667,120.167 340.667,138.833 340,157.5C 336.37,161.061 332.203,163.728 327.5,165.5C 327.414,164.504 327.748,163.671 328.5,163C 330.87,160.758 333.536,159.258 336.5,158.5C 337.167,158.5 337.5,158.167 337.5,157.5C 338.662,139.005 338.829,120.338 338,101.5C 336.352,100.283 334.519,99.4497 332.5,99C 330.937,98.2411 329.937,97.0744 329.5,95.5 Z"/></g>
<g><path style="opacity:1" fill="#59874f" d="M 266.5,88.5 C 263.98,90.2632 261.647,92.2632 259.5,94.5C 256.299,95.3786 253.632,97.0453 251.5,99.5C 249.847,99.6596 248.514,100.326 247.5,101.5C 246.868,110.204 245.868,118.871 244.5,127.5C 244.225,118.779 244.558,110.113 245.5,101.5C 251.7,95.9859 258.7,91.6525 266.5,88.5 Z"/></g>
<g><path style="opacity:0.118" fill="#686868" d="M 178.5,112.5 C 178.833,113.167 179.167,113.833 179.5,114.5C 177.218,113.61 174.885,113.444 172.5,114C 168.807,115.847 165.14,117.68 161.5,119.5C 161.937,117.926 162.937,116.759 164.5,116C 166.779,115.527 168.779,114.527 170.5,113C 173.146,112.503 175.813,112.336 178.5,112.5 Z"/></g>
<g><path style="opacity:0.651" fill="#adadad" d="M 178.5,112.5 C 180.795,113.136 182.461,114.469 183.5,116.5C 181.847,116.34 180.514,115.674 179.5,114.5C 179.167,113.833 178.833,113.167 178.5,112.5 Z"/></g>
<g><path style="opacity:0.267" fill="#6e6b6d" d="M 533.5,116.5 C 531.145,115.906 528.978,114.906 527,113.5C 525.2,114.32 523.366,114.986 521.5,115.5C 521.414,114.504 521.748,113.671 522.5,113C 527.174,111.663 530.84,112.83 533.5,116.5 Z"/></g>
<g><path style="opacity:0.173" fill="#858585" d="M 413.5,115.5 C 411.218,114.61 408.885,114.444 406.5,115C 403.447,116.527 400.447,118.027 397.5,119.5C 401.298,115.434 405.964,113.268 411.5,113C 412.381,113.708 413.047,114.542 413.5,115.5 Z"/></g>
<g><path style="opacity:0.11" fill="#696969" d="M 183.5,116.5 C 185.027,116.427 186.027,117.094 186.5,118.5C 184.973,118.573 183.973,117.906 183.5,116.5 Z"/></g>
<g><path style="opacity:0.133" fill="#7a7a7a" d="M 417.5,117.5 C 419.027,117.427 420.027,118.094 420.5,119.5C 418.973,119.573 417.973,118.906 417.5,117.5 Z"/></g>
<g><path style="opacity:1" fill="#599850" d="M 247.5,101.5 C 246.828,104.908 247.828,107.575 250.5,109.5C 251.581,113.315 252.914,116.981 254.5,120.5C 254.514,128.02 252.347,129.02 248,123.5C 246.209,133.815 245.709,144.148 246.5,154.5C 246.715,156.179 246.048,157.179 244.5,157.5C 244.5,147.5 244.5,137.5 244.5,127.5C 245.868,118.871 246.868,110.204 247.5,101.5 Z"/></g>
<g><path style="opacity:1" fill="#579f48" d="M 251.5,99.5 C 249.752,101.16 249.252,103.16 250,105.5C 251.31,108.127 252.977,110.46 255,112.5C 255.483,113.448 255.649,114.448 255.5,115.5C 257.333,120.985 260,125.985 263.5,130.5C 262.448,130.351 261.448,130.517 260.5,131C 257.316,134.185 255.483,138.018 255,142.5C 254,143.167 253,143.833 252,144.5C 251.339,147.946 250.505,151.279 249.5,154.5C 248.5,154.5 247.5,154.5 246.5,154.5C 245.709,144.148 246.209,133.815 248,123.5C 252.347,129.02 254.514,128.02 254.5,120.5C 252.914,116.981 251.581,113.315 250.5,109.5C 247.828,107.575 246.828,104.908 247.5,101.5C 248.514,100.326 249.847,99.6596 251.5,99.5 Z"/></g>
<g><path style="opacity:0.051" fill="#585758" d="M 519.5,116.5 C 517.664,118.588 515.331,119.921 512.5,120.5C 513.855,117.482 516.188,116.149 519.5,116.5 Z"/></g>
<g><path style="opacity:0.259" fill="#354832" d="M 535.5,123.5 C 533.063,123.114 531.063,121.947 529.5,120C 527.115,119.444 524.782,119.61 522.5,120.5C 522.611,119.883 522.944,119.383 523.5,119C 528.717,117.47 532.717,118.97 535.5,123.5 Z"/></g>
<g><path style="opacity:0.173" fill="#344431" d="M 522.5,120.5 C 521.167,121.933 519.667,123.267 518,124.5C 517.517,125.448 517.351,126.448 517.5,127.5C 517.5,130.167 517.5,132.833 517.5,135.5C 515.621,132.144 515.121,128.477 516,124.5C 517.638,122.266 519.805,120.933 522.5,120.5 Z"/></g>
<g><path style="opacity:0.071" fill="#6e6e6e" d="M 574.5,119.5 C 572.028,123.616 568.361,126.283 563.5,127.5C 566.952,124.601 570.618,121.934 574.5,119.5 Z"/></g>
<g><path style="opacity:1" fill="#6d966a" d="M 535.5,123.5 C 535.5,127.5 535.5,131.5 535.5,135.5C 532.733,135.87 530.733,137.204 529.5,139.5C 525.981,139.741 523.315,138.407 521.5,135.5C 524.85,135.665 528.183,135.498 531.5,135C 536.172,128.104 534.172,124.271 525.5,123.5C 523.488,123.84 521.488,124.173 519.5,124.5C 519.5,128.167 519.5,131.833 519.5,135.5C 518.833,132.833 518.167,130.167 517.5,127.5C 517.351,126.448 517.517,125.448 518,124.5C 519.667,123.267 521.167,121.933 522.5,120.5C 524.782,119.61 527.115,119.444 529.5,120C 531.063,121.947 533.063,123.114 535.5,123.5 Z"/></g>
<g><path style="opacity:0.071" fill="#3d3d3d" d="M 186.5,118.5 C 188.411,118.574 189.578,119.574 190,121.5C 190.5,133.162 190.667,144.829 190.5,156.5C 189.669,145.341 189.169,134.007 189,122.5C 188.338,121.016 187.504,119.683 186.5,118.5 Z"/></g>
<g><path style="opacity:0.079" fill="#343434" d="M 161.5,119.5 C 160.852,131.598 160.186,143.598 159.5,155.5C 158.854,143.12 159.521,131.12 161.5,119.5 Z"/></g>
<g><path style="opacity:1" fill="#54924d" d="M 324.5,124.5 C 323.904,137.051 323.237,149.551 322.5,162C 327.4,161.566 332.066,160.399 336.5,158.5C 333.536,159.258 330.87,160.758 328.5,163C 327.748,163.671 327.414,164.504 327.5,165.5C 324.646,166.026 321.979,167.026 319.5,168.5C 318.791,167.596 317.791,167.263 316.5,167.5C 315.897,150.825 315.23,134.158 314.5,117.5C 314.85,113.616 316.517,112.782 319.5,115C 319.41,117.368 319.743,119.868 320.5,122.5C 321.622,123.63 322.956,124.297 324.5,124.5 Z"/></g>
<g><path style="opacity:1" fill="#448941" d="M 337.5,157.5 C 337.5,158.167 337.167,158.5 336.5,158.5C 332.066,160.399 327.4,161.566 322.5,162C 323.237,149.551 323.904,137.051 324.5,124.5C 326.577,121.816 328.744,119.149 331,116.5C 333.118,112.203 335.118,107.869 337,103.5C 337.5,121.497 337.667,139.497 337.5,157.5 Z"/></g>
<g><path style="opacity:0.082" fill="#575757" d="M 397.5,119.5 C 397.189,120.478 396.522,121.145 395.5,121.5C 394.167,127.5 394.167,133.5 395.5,139.5C 396.522,139.855 397.189,140.522 397.5,141.5C 396.417,141.461 395.417,141.127 394.5,140.5C 393.167,133.833 393.167,127.167 394.5,120.5C 395.417,119.873 396.417,119.539 397.5,119.5 Z"/></g>
<g><path style="opacity:0.918" fill="#4d684b" d="M 517.5,127.5 C 518.167,130.167 518.833,132.833 519.5,135.5C 520.167,135.5 520.833,135.5 521.5,135.5C 523.315,138.407 525.981,139.741 529.5,139.5C 524.755,140.808 520.755,139.474 517.5,135.5C 517.5,132.833 517.5,130.167 517.5,127.5 Z"/></g>
<g><path style="opacity:1" fill="#669f64" d="M 521.5,135.5 C 520.833,135.5 520.167,135.5 519.5,135.5C 519.5,131.833 519.5,128.167 519.5,124.5C 521.488,124.173 523.488,123.84 525.5,123.5C 534.172,124.271 536.172,128.104 531.5,135C 528.183,135.498 524.85,135.665 521.5,135.5 Z"/></g>
<g><path style="opacity:0.118" fill="#666666" d="M 563.5,127.5 C 559.836,130.335 555.836,132.668 551.5,134.5C 554.835,131.161 558.835,128.828 563.5,127.5 Z"/></g>
<g><path style="opacity:0.059" fill="#344a34" d="M 535.5,123.5 C 536.117,123.611 536.617,123.944 537,124.5C 537.167,126 537.333,127.5 537.5,129C 537.664,131.544 536.997,133.71 535.5,135.5C 535.5,131.5 535.5,127.5 535.5,123.5 Z"/></g>
<g><path style="opacity:0.05" fill="#3a383d" d="M 537.5,118.5 C 538.583,118.539 539.583,118.873 540.5,119.5C 541.495,124.792 541.828,130.125 541.5,135.5C 540.834,130.651 540.167,125.651 539.5,120.5C 538.478,120.145 537.811,119.478 537.5,118.5 Z"/></g>
<g><path style="opacity:0.388" fill="#747474" d="M 541.5,135.5 C 544.167,136.833 546.833,136.833 549.5,135.5C 546.648,139.371 543.981,139.371 541.5,135.5 Z"/></g>
<g><path style="opacity:0.024" fill="#365034" d="M 535.5,135.5 C 534.198,137.822 532.198,139.155 529.5,139.5C 530.733,137.204 532.733,135.87 535.5,135.5 Z"/></g>
<g><path style="opacity:0.498" fill="#89858b" d="M 511.5,138.5 C 514.54,139.68 517.206,141.347 519.5,143.5C 516.995,143.02 514.662,142.02 512.5,140.5C 511.702,140.043 511.369,139.376 511.5,138.5 Z"/></g>
<g><path style="opacity:1" fill="#3f863d" d="M 263.5,130.5 C 263.833,131.5 264.5,132.167 265.5,132.5C 267.3,136.545 269.3,140.545 271.5,144.5C 275.972,154.111 280.972,163.444 286.5,172.5C 288.644,175.122 289.977,178.122 290.5,181.5C 289.5,181.5 288.5,181.5 287.5,181.5C 285.442,180.067 283.108,179.4 280.5,179.5C 276.056,173.894 270.389,170.061 263.5,168C 258.906,165.828 254.573,163.161 250.5,160C 249.207,159.51 247.873,159.343 246.5,159.5C 245.167,159.5 244.5,158.833 244.5,157.5C 246.048,157.179 246.715,156.179 246.5,154.5C 247.5,154.5 248.5,154.5 249.5,154.5C 250.505,151.279 251.339,147.946 252,144.5C 253,143.833 254,143.167 255,142.5C 255.483,138.018 257.316,134.185 260.5,131C 261.448,130.517 262.448,130.351 263.5,130.5 Z"/></g>
<g><path style="opacity:0.78" fill="#959595" d="M 423.5,139.5 C 421.84,142.626 419.174,144.293 415.5,144.5C 417.822,142.336 420.489,140.669 423.5,139.5 Z"/></g>
<g><path style="opacity:0.589" fill="#999999" d="M 367.5,98.5 C 365.77,100.079 363.936,101.746 362,103.5C 361.192,122.21 361.359,140.877 362.5,159.5C 361.034,158.653 360.2,157.32 360,155.5C 359.333,138.833 359.333,122.167 360,105.5C 361.057,101.609 363.557,99.2759 367.5,98.5 Z"/></g>
<g><path style="opacity:0.224" fill="#7d7d7d" d="M 399.5,142.5 C 401.852,143.566 404.186,144.733 406.5,146C 408.885,146.556 411.218,146.39 413.5,145.5C 413.389,146.117 413.056,146.617 412.5,147C 407.075,148.273 402.742,146.773 399.5,142.5 Z"/></g>
<g><path style="opacity:0.259" fill="#777777" d="M 519.5,143.5 C 525.165,145.997 530.498,148.997 535.5,152.5C 529.511,150.509 524.177,147.509 519.5,143.5 Z"/></g>
<g><path style="opacity:0.401" fill="#365531" d="M 245.5,101.5 C 244.558,110.113 244.225,118.779 244.5,127.5C 244.5,137.5 244.5,147.5 244.5,157.5C 243.778,157.082 243.278,156.416 243,155.5C 242.552,139.717 242.385,124.05 242.5,108.5C 242.887,105.762 243.887,103.428 245.5,101.5 Z"/></g>
<g><path style="opacity:0.212" fill="#757575" d="M 535.5,152.5 C 541.165,154.997 546.498,157.997 551.5,161.5C 546.443,159.474 541.443,157.141 536.5,154.5C 535.702,154.043 535.369,153.376 535.5,152.5 Z"/></g>
<g><path style="opacity:0.016" fill="#595959" d="M 190.5,156.5 C 191.833,157.167 192.833,158.167 193.5,159.5C 191.5,159.5 190.5,158.5 190.5,156.5 Z"/></g>
<g><path style="opacity:0.29" fill="#717171" d="M 457.5,157.5 C 457.141,159.371 456.141,160.871 454.5,162C 442.112,168.858 429.779,175.691 417.5,182.5C 417.953,181.542 418.619,180.708 419.5,180C 432.717,173.233 445.383,165.733 457.5,157.5 Z"/></g>
<g><path style="opacity:0.114" fill="#6f6f6f" d="M 159.5,155.5 C 158.095,159.236 155.429,161.569 151.5,162.5C 154.054,160.194 156.721,157.861 159.5,155.5 Z"/></g>
<g><path style="opacity:0.122" fill="#5f5f5f" d="M 193.5,159.5 C 195.674,159.75 197.341,160.75 198.5,162.5C 196.326,162.25 194.659,161.25 193.5,159.5 Z"/></g>
<g><path style="opacity:0.09" fill="#6c6c6c" d="M 362.5,159.5 C 365.511,160.669 368.178,162.336 370.5,164.5C 367.151,163.831 364.484,162.164 362.5,159.5 Z"/></g>
<g><path style="opacity:0.663" fill="#909090" d="M 198.5,162.5 C 201.857,162.216 204.191,163.549 205.5,166.5C 202.669,165.921 200.336,164.588 198.5,162.5 Z"/></g>
<g><path style="opacity:0.706" fill="#888888" d="M 487.5,163.5 C 491.794,163.977 495.127,165.977 497.5,169.5C 493.827,168 490.494,166 487.5,163.5 Z"/></g>
<g><path style="opacity:0.122" fill="#5d5d5d" d="M 151.5,162.5 C 148.992,164.924 145.992,166.59 142.5,167.5C 144.778,164.528 147.778,162.861 151.5,162.5 Z"/></g>
<g><path style="opacity:0.698" fill="#919191" d="M 370.5,164.5 C 374.186,164.67 376.853,166.336 378.5,169.5C 375.489,168.331 372.822,166.664 370.5,164.5 Z"/></g>
<g><path style="opacity:0.518" fill="#3b5c38" d="M 246.5,159.5 C 247.873,159.343 249.207,159.51 250.5,160C 254.573,163.161 258.906,165.828 263.5,168C 270.389,170.061 276.056,173.894 280.5,179.5C 268.5,173.838 257.167,167.172 246.5,159.5 Z"/></g>
<g><path style="opacity:0.745" fill="#939393" d="M 205.5,166.5 C 207.482,166.995 209.482,167.495 211.5,168C 212.252,168.671 212.586,169.504 212.5,170.5C 209.669,169.921 207.336,168.588 205.5,166.5 Z"/></g>
<g><path style="opacity:0.02" fill="#585858" d="M 142.5,167.5 C 140.664,169.588 138.331,170.921 135.5,171.5C 137.052,168.888 139.386,167.555 142.5,167.5 Z"/></g>
<g><path style="opacity:0.153" fill="#838383" d="M 378.5,169.5 C 381.285,168.916 382.952,169.916 383.5,172.5C 381.632,171.737 379.965,170.737 378.5,169.5 Z"/></g>
<g><path style="opacity:0.075" fill="#4f4f4f" d="M 497.5,169.5 C 499.674,169.75 501.341,170.75 502.5,172.5C 500.326,172.25 498.659,171.25 497.5,169.5 Z"/></g>
<g><path style="opacity:0.067" fill="#626262" d="M 135.5,171.5 C 134.713,173.104 133.38,173.771 131.5,173.5C 132.287,171.896 133.62,171.229 135.5,171.5 Z"/></g>
<g><path style="opacity:0.588" fill="#646464" d="M 223.5,103.5 C 224.663,125.996 224.83,148.663 224,171.5C 223.521,173.646 222.188,174.646 220,174.5C 216.941,174.056 214.441,172.723 212.5,170.5C 215.09,170.396 217.423,171.063 219.5,172.5C 221.029,172.471 222.196,171.804 223,170.5C 223.5,148.169 223.667,125.836 223.5,103.5 Z"/></g>
<g><path style="opacity:0.69" fill="#929292" d="M 383.5,172.5 C 386.393,172.031 388.393,173.031 389.5,175.5C 387.181,175.008 385.181,174.008 383.5,172.5 Z"/></g>
<g><path style="opacity:0.733" fill="#808080" d="M 502.5,172.5 C 506.468,172.477 509.468,174.144 511.5,177.5C 508.24,176.226 505.24,174.56 502.5,172.5 Z"/></g>
<g><path style="opacity:0.031" fill="#686868" d="M 551.5,161.5 C 558.592,163.705 559.258,167.205 553.5,172C 550.264,173.786 546.93,175.286 543.5,176.5C 543.369,175.624 543.702,174.957 544.5,174.5C 548.244,172.879 551.744,170.879 555,168.5C 555.781,167.056 555.614,165.723 554.5,164.5C 552.787,164.121 551.787,163.121 551.5,161.5 Z"/></g>
<g><path style="opacity:0.714" fill="#a1a1a1" d="M 389.5,175.5 C 394.517,176.203 398.517,178.536 401.5,182.5C 397.164,180.668 393.164,178.335 389.5,175.5 Z"/></g>
<g><path style="opacity:0.541" fill="#7e7e7e" d="M 511.5,177.5 C 515.222,177.861 518.222,179.528 520.5,182.5C 517.008,181.59 514.008,179.924 511.5,177.5 Z"/></g>
<g><path style="opacity:0.635" fill="#335233" d="M 280.5,179.5 C 283.108,179.4 285.442,180.067 287.5,181.5C 287.5,182.167 287.5,182.833 287.5,183.5C 284.669,182.921 282.336,181.588 280.5,179.5 Z"/></g>
<g><path style="opacity:0.188" fill="#6d6d6d" d="M 543.5,176.5 C 539.063,179.559 534.397,182.392 529.5,185C 525.858,186.07 522.858,185.236 520.5,182.5C 523.779,183.492 527.112,183.659 530.5,183C 534.619,180.274 538.952,178.107 543.5,176.5 Z"/></g>
<g><path style="opacity:0.208" fill="#3a5236" d="M 327.5,165.5 C 316.352,172.912 304.686,179.579 292.5,185.5C 290.664,184.972 288.997,184.306 287.5,183.5C 290.187,183.664 292.854,183.497 295.5,183C 298.07,180.913 300.737,179.08 303.5,177.5C 308.833,174.5 314.167,171.5 319.5,168.5C 321.979,167.026 324.646,166.026 327.5,165.5 Z"/></g>
<g><path style="opacity:1" fill="#6b9968" d="M 343.5,177.5 C 346.187,177.336 348.854,177.503 351.5,178C 353.888,179.861 356.554,181.194 359.5,182C 361.063,182.759 362.063,183.926 362.5,185.5C 357.949,182.807 353.115,180.807 348,179.5C 344.083,179.355 341.583,181.022 340.5,184.5C 343.156,183.842 345.822,183.175 348.5,182.5C 350.03,182.64 351.03,183.307 351.5,184.5C 349.863,183.782 348.197,183.616 346.5,184C 342.42,186.029 338.754,188.529 335.5,191.5C 333.801,191.34 332.134,191.506 330.5,192C 324.24,196.785 317.907,201.285 311.5,205.5C 309.716,205.893 308.05,206.559 306.5,207.5C 306.286,205.856 306.62,204.356 307.5,203C 304.415,202.542 302.082,203.709 300.5,206.5C 301.319,223.456 301.819,240.456 302,257.5C 303.039,258.244 303.539,259.244 303.5,260.5C 301.876,260.64 300.71,259.973 300,258.5C 299.5,240.503 299.333,222.503 299.5,204.5C 299.833,202.167 301.167,200.833 303.5,200.5C 310.627,198.106 316.961,194.44 322.5,189.5C 326.693,188.309 330.693,186.643 334.5,184.5C 335.193,183.482 335.859,182.482 336.5,181.5C 338.336,179.412 340.669,178.079 343.5,177.5 Z"/></g>
<g><path style="opacity:0.043" fill="#7b7b7b" d="M 415.5,183.5 C 413.883,184.972 411.883,185.639 409.5,185.5C 407.955,185.489 406.622,185.156 405.5,184.5C 408.881,184.54 412.214,184.207 415.5,183.5 Z"/></g>
<g><path style="opacity:0.251" fill="#415c3f" d="M 383.5,195.5 C 376.61,191.888 369.61,188.555 362.5,185.5C 362.063,183.926 361.063,182.759 359.5,182C 356.554,181.194 353.888,179.861 351.5,178C 348.854,177.503 346.187,177.336 343.5,177.5C 345.527,175.912 347.861,175.412 350.5,176C 362.191,181.567 373.191,188.067 383.5,195.5 Z"/></g>
<g><path style="opacity:0.161" fill="#40583e" d="M 351.5,184.5 C 352.167,185.5 352.833,186.5 353.5,187.5C 351.844,186.854 350.177,186.187 348.5,185.5C 344,187.252 339.666,189.252 335.5,191.5C 338.754,188.529 342.42,186.029 346.5,184C 348.197,183.616 349.863,183.782 351.5,184.5 Z"/></g>
<g><path style="opacity:1" fill="#699c65" d="M 362.5,185.5 C 369.61,188.555 376.61,191.888 383.5,195.5C 384.141,196.482 384.807,197.482 385.5,198.5C 389.134,199.65 392.467,201.317 395.5,203.5C 396.64,221.79 396.807,240.123 396,258.5C 395.124,260.635 393.624,261.969 391.5,262.5C 388.047,263.143 384.881,264.476 382,266.5C 380.775,266.138 379.609,265.638 378.5,265C 380.4,262.665 382.4,260.498 384.5,258.5C 386.674,258.25 388.341,257.25 389.5,255.5C 390.662,239.339 390.828,223.005 390,206.5C 386.052,202.391 381.219,200.391 375.5,200.5C 375.249,198.83 374.582,197.33 373.5,196C 368.554,195.197 364.554,192.863 361.5,189C 357.738,188.283 354.404,186.783 351.5,184.5C 351.03,183.307 350.03,182.64 348.5,182.5C 345.822,183.175 343.156,183.842 340.5,184.5C 341.583,181.022 344.083,179.355 348,179.5C 353.115,180.807 357.949,182.807 362.5,185.5 Z"/></g>
<g><path style="opacity:0.541" fill="#4a6446" d="M 336.5,181.5 C 335.859,182.482 335.193,183.482 334.5,184.5C 330.693,186.643 326.693,188.309 322.5,189.5C 326.507,185.826 331.173,183.159 336.5,181.5 Z"/></g>
<g><path style="opacity:1" fill="#597a55" d="M 351.5,184.5 C 354.404,186.783 357.738,188.283 361.5,189C 364.554,192.863 368.554,195.197 373.5,196C 374.582,197.33 375.249,198.83 375.5,200.5C 367.801,196.656 360.468,192.322 353.5,187.5C 352.833,186.5 352.167,185.5 351.5,184.5 Z"/></g>
<g><path style="opacity:0.584" fill="#415a40" d="M 322.5,189.5 C 316.961,194.44 310.627,198.106 303.5,200.5C 309.334,196.079 315.668,192.412 322.5,189.5 Z"/></g>
<g><path style="opacity:0.404" fill="#486247" d="M 335.5,191.5 C 327.836,196.668 319.836,201.335 311.5,205.5C 317.907,201.285 324.24,196.785 330.5,192C 332.134,191.506 333.801,191.34 335.5,191.5 Z"/></g>
<g><path style="opacity:0.337" fill="#4d664a" d="M 383.5,195.5 C 387.423,196.795 391.09,198.628 394.5,201C 395.252,201.671 395.586,202.504 395.5,203.5C 392.467,201.317 389.134,199.65 385.5,198.5C 384.807,197.482 384.141,196.482 383.5,195.5 Z"/></g>
<g><path style="opacity:0.349" fill="#435942" d="M 299.5,204.5 C 299.333,222.503 299.5,240.503 300,258.5C 300.71,259.973 301.876,260.64 303.5,260.5C 305.854,262.188 307.854,264.188 309.5,266.5C 303.856,265.116 300.023,261.783 298,256.5C 297.333,241.5 297.333,226.5 298,211.5C 298.186,208.964 298.686,206.631 299.5,204.5 Z"/></g>
<g><path style="opacity:0.095" fill="#30422f" d="M 388.5,207.5 C 389.496,223.325 389.83,239.325 389.5,255.5C 388.341,257.25 386.674,258.25 384.5,258.5C 385.315,257.163 386.482,256.163 388,255.5C 388.5,239.503 388.667,223.503 388.5,207.5 Z"/></g>
<g><path style="opacity:0.626" fill="#607e5c" d="M 375.5,200.5 C 381.219,200.391 386.052,202.391 390,206.5C 390.828,223.005 390.662,239.339 389.5,255.5C 389.83,239.325 389.496,223.325 388.5,207.5C 384,205.417 379.666,203.084 375.5,200.5 Z"/></g>
<g><path style="opacity:0.675" fill="#51614f" d="M 407.5,197.5 C 414.62,196.126 418.953,198.959 420.5,206C 418.991,213.764 414.324,216.43 406.5,214C 400.953,208.032 401.287,202.532 407.5,197.5 Z"/></g>
<g><path style="opacity:0.133" fill="#2b4128" d="M 408.5,199.5 C 416.3,199.934 418.633,203.601 415.5,210.5C 410.063,212.89 406.396,211.39 404.5,206C 405.713,203.738 407.046,201.571 408.5,199.5 Z"/></g>
<g><path style="opacity:0.588" fill="#5b7357" d="M 408.5,201.5 C 410.467,201.261 412.301,201.594 414,202.5C 414.818,205.227 414.652,207.894 413.5,210.5C 412.167,206.5 410.833,206.5 409.5,210.5C 407.215,207.822 406.882,204.822 408.5,201.5 Z"/></g>
<g><path style="opacity:0.168" fill="#465c45" d="M 375.5,214.5 C 364.702,209.447 354.036,209.447 343.5,214.5C 345.12,212.016 347.453,210.516 350.5,210C 356.167,209.333 361.833,209.333 367.5,210C 370.684,210.754 373.351,212.254 375.5,214.5 Z"/></g>
<g><path style="opacity:1" fill="#668f61" d="M 306.5,207.5 C 306.17,223.675 306.504,239.675 307.5,255.5C 309.23,256.026 310.564,257.026 311.5,258.5C 315.28,263.213 319.946,264.547 325.5,262.5C 325.5,261.833 325.833,261.5 326.5,261.5C 326.833,261.5 327.167,261.5 327.5,261.5C 327.196,262.15 326.863,262.817 326.5,263.5C 322.878,264.659 319.211,264.825 315.5,264C 313.51,262.249 311.177,261.249 308.5,261C 307.12,259.075 305.62,257.241 304,255.5C 303.333,242.167 303.333,228.833 304,215.5C 303.947,212.325 304.78,209.658 306.5,207.5 Z"/></g>
<g><path style="opacity:0.561" fill="#475e45" d="M 334.5,265.5 C 334.5,247.833 334.5,230.167 334.5,212.5C 332.5,212.5 330.5,212.5 328.5,212.5C 328.5,228.167 328.5,243.833 328.5,259.5C 328.167,260.167 327.833,260.833 327.5,261.5C 327.167,261.5 326.833,261.5 326.5,261.5C 326.333,244.83 326.5,228.163 327,211.5C 329.656,209.117 332.489,208.951 335.5,211C 336.658,227.759 336.825,244.593 336,261.5C 335.79,263.058 335.29,264.391 334.5,265.5 Z"/></g>
<g><path style="opacity:0.878" fill="#546f50" d="M 375.5,214.5 C 378.927,217.374 380.094,221.041 379,225.5C 376.599,226.602 374.099,226.769 371.5,226C 370.663,224.989 370.33,223.822 370.5,222.5C 372.456,224.148 374.789,224.815 377.5,224.5C 376.96,221.135 376.294,217.802 375.5,214.5 Z"/></g>
<g><path style="opacity:0.089" fill="#334931" d="M 311.5,205.5 C 310.685,206.837 309.518,207.837 308,208.5C 307.5,224.163 307.333,239.83 307.5,255.5C 306.504,239.675 306.17,223.675 306.5,207.5C 308.05,206.559 309.716,205.893 311.5,205.5 Z"/></g>
<g><path style="opacity:1" fill="#699e64" d="M 306.5,207.5 C 304.78,209.658 303.947,212.325 304,215.5C 303.333,228.833 303.333,242.167 304,255.5C 305.62,257.241 307.12,259.075 308.5,261C 311.177,261.249 313.51,262.249 315.5,264C 319.211,264.825 322.878,264.659 326.5,263.5C 326.863,262.817 327.196,262.15 327.5,261.5C 327.833,260.833 328.167,260.167 328.5,259.5C 329.496,244.342 329.83,229.009 329.5,213.5C 330.833,213.5 332.167,213.5 333.5,213.5C 333.667,227.171 333.5,240.837 333,254.5C 331.424,256.976 331.257,259.642 332.5,262.5C 330.758,266.719 327.758,269.386 323.5,270.5C 318.855,269.191 314.188,267.857 309.5,266.5C 307.854,264.188 305.854,262.188 303.5,260.5C 303.539,259.244 303.039,258.244 302,257.5C 301.819,240.456 301.319,223.456 300.5,206.5C 302.082,203.709 304.415,202.542 307.5,203C 306.62,204.356 306.286,205.856 306.5,207.5 Z"/></g>
<g><path style="opacity:0.867" fill="#6e986b" d="M 334.5,265.5 C 332.704,266.793 331.037,268.293 329.5,270C 327.527,270.495 325.527,270.662 323.5,270.5C 327.758,269.386 330.758,266.719 332.5,262.5C 331.257,259.642 331.424,256.976 333,254.5C 333.5,240.837 333.667,227.171 333.5,213.5C 332.167,213.5 330.833,213.5 329.5,213.5C 329.83,229.009 329.496,244.342 328.5,259.5C 328.5,243.833 328.5,228.167 328.5,212.5C 330.5,212.5 332.5,212.5 334.5,212.5C 334.5,230.167 334.5,247.833 334.5,265.5 Z"/></g>
<g><path style="opacity:0.833" fill="#4a6447" d="M 349.5,224.5 C 358.76,226.093 367.76,228.426 376.5,231.5C 373.545,230.841 370.545,230.508 367.5,230.5C 362.162,229.919 356.829,228.752 351.5,227C 350.244,226.583 349.577,225.75 349.5,224.5 Z"/></g>
<g><path style="opacity:1" fill="#699865" d="M 375.5,214.5 C 376.294,217.802 376.96,221.135 377.5,224.5C 374.789,224.815 372.456,224.148 370.5,222.5C 370.863,220.089 369.863,218.589 367.5,218C 362.167,217.333 356.833,217.333 351.5,218C 350.944,218.383 350.611,218.883 350.5,219.5C 349.962,221.117 349.629,222.784 349.5,224.5C 349.577,225.75 350.244,226.583 351.5,227C 356.829,228.752 362.162,229.919 367.5,230.5C 370.545,230.508 373.545,230.841 376.5,231.5C 376.685,233.196 377.519,234.529 379,235.5C 382.145,246.019 378.312,252.186 367.5,254C 363.514,254.499 359.514,254.666 355.5,254.5C 351.41,252.899 347.41,250.899 343.5,248.5C 341.946,246.067 341.28,243.4 341.5,240.5C 342.833,240.5 344.167,240.5 345.5,240.5C 345.229,242.38 345.896,243.713 347.5,244.5C 351.37,247.011 355.703,248.011 360.5,247.5C 363.5,247.333 366.5,247.167 369.5,247C 370.823,246.184 371.489,245.017 371.5,243.5C 371.762,242.022 371.429,240.689 370.5,239.5C 369.261,239.058 368.261,238.391 367.5,237.5C 362.766,235.855 357.766,235.189 352.5,235.5C 352.167,235.5 351.833,235.5 351.5,235.5C 347.331,233.846 343.831,231.179 341,227.5C 340.123,222.791 340.956,218.457 343.5,214.5C 354.036,209.447 364.702,209.447 375.5,214.5 Z"/></g>
<g><path style="opacity:0.569" fill="#465f42" d="M 370.5,222.5 C 369.573,220.424 367.907,219.257 365.5,219C 360.448,218.274 355.448,218.441 350.5,219.5C 350.611,218.883 350.944,218.383 351.5,218C 356.833,217.333 362.167,217.333 367.5,218C 369.863,218.589 370.863,220.089 370.5,222.5 Z"/></g>
<g><path style="opacity:1" fill="#669f61" d="M 367.5,230.5 C 371.369,232.34 375.035,234.673 378.5,237.5C 378.11,241.541 376.776,245.207 374.5,248.5C 374.167,248.167 373.833,247.833 373.5,247.5C 374.562,244.897 374.728,242.23 374,239.5C 372.294,238.692 371.461,237.359 371.5,235.5C 365.269,234.145 358.936,233.145 352.5,232.5C 352.291,231.914 351.957,231.414 351.5,231C 356.823,230.501 362.156,230.334 367.5,230.5 Z"/></g>
<g><path style="opacity:0.243" fill="#40533b" d="M 343.5,214.5 C 340.956,218.457 340.123,222.791 341,227.5C 343.831,231.179 347.331,233.846 351.5,235.5C 342.021,234.187 338.188,228.854 340,219.5C 340.223,217.119 341.39,215.453 343.5,214.5 Z"/></g>
<g><path style="opacity:0.29" fill="#3d553c" d="M 352.5,235.5 C 357.766,235.189 362.766,235.855 367.5,237.5C 362.306,237.259 357.306,236.593 352.5,235.5 Z"/></g>
<g><path style="opacity:0.949" fill="#628560" d="M 347.5,244.5 C 345.896,243.713 345.229,242.38 345.5,240.5C 344.167,240.5 342.833,240.5 341.5,240.5C 341.28,243.4 341.946,246.067 343.5,248.5C 347.41,250.899 351.41,252.899 355.5,254.5C 354.167,254.5 352.833,254.5 351.5,254.5C 348.309,253.908 345.309,252.741 342.5,251C 340.393,249.736 339.393,247.903 339.5,245.5C 339.5,243.5 339.5,241.5 339.5,239.5C 341.833,239.5 344.167,239.5 346.5,239.5C 346.629,241.216 346.962,242.883 347.5,244.5 Z"/></g>
<g><path style="opacity:0.553" fill="#3b4f3a" d="M 371.5,243.5 C 371.489,245.017 370.823,246.184 369.5,247C 366.5,247.167 363.5,247.333 360.5,247.5C 355.703,248.011 351.37,247.011 347.5,244.5C 346.962,242.883 346.629,241.216 346.5,239.5C 344.167,239.5 341.833,239.5 339.5,239.5C 339.5,241.5 339.5,243.5 339.5,245.5C 336.454,238.54 338.788,236.206 346.5,238.5C 347.806,239.912 348.64,241.579 349,243.5C 350.255,244.211 351.421,245.044 352.5,246C 357.833,246.667 363.167,246.667 368.5,246C 369.373,244.955 370.373,244.122 371.5,243.5 Z"/></g>
<g><path style="opacity:0.075" fill="#455e45" d="M 376.5,231.5 C 380.123,233.577 381.79,236.744 381.5,241C 381.152,248.689 377.152,253.355 369.5,255C 363.319,255.819 357.319,255.653 351.5,254.5C 352.833,254.5 354.167,254.5 355.5,254.5C 359.514,254.666 363.514,254.499 367.5,254C 378.312,252.186 382.145,246.019 379,235.5C 377.519,234.529 376.685,233.196 376.5,231.5 Z"/></g>
<g><path style="opacity:0.137" fill="#374e36" d="M 311.5,258.5 C 314.262,259.38 316.929,260.546 319.5,262C 321.473,262.495 323.473,262.662 325.5,262.5C 319.946,264.547 315.28,263.213 311.5,258.5 Z"/></g>
<g><path style="opacity:0.243" fill="#425941" d="M 395.5,203.5 C 396.117,203.611 396.617,203.944 397,204.5C 398.071,222.158 398.405,239.825 398,257.5C 397.208,259.587 396.041,261.421 394.5,263C 387.446,266.858 380.446,270.691 373.5,274.5C 373.782,273.222 374.449,272.222 375.5,271.5C 380.914,268.736 386.247,265.736 391.5,262.5C 393.624,261.969 395.124,260.635 396,258.5C 396.807,240.123 396.64,221.79 395.5,203.5 Z"/></g>
<g><path style="opacity:1" fill="#62885d" d="M 384.5,258.5 C 382.4,260.498 380.4,262.665 378.5,265C 379.609,265.638 380.775,266.138 382,266.5C 384.881,264.476 388.047,263.143 391.5,262.5C 386.247,265.736 380.914,268.736 375.5,271.5C 374.761,271.631 374.094,271.464 373.5,271C 376.941,270.164 377.108,269.331 374,268.5C 370.086,270.353 365.92,271.353 361.5,271.5C 368.905,266.774 376.572,262.441 384.5,258.5 Z"/></g>
<g><path style="opacity:0.435" fill="#4a6247" d="M 334.5,265.5 C 332.532,270.648 328.698,272.982 323,272.5C 317.759,271.959 313.259,269.959 309.5,266.5C 314.188,267.857 318.855,269.191 323.5,270.5C 325.527,270.662 327.527,270.495 329.5,270C 331.037,268.293 332.704,266.793 334.5,265.5 Z"/></g>
<g><path style="opacity:0.604" fill="#415b41" d="M 361.5,271.5 C 360.191,274.451 357.857,275.784 354.5,275.5C 356.336,273.412 358.669,272.079 361.5,271.5 Z"/></g>
<g><path style="opacity:0.129" fill="#384935" d="M 340.5,274.5 C 336.435,272.516 333.101,273.35 330.5,277C 331.252,277.671 331.586,278.504 331.5,279.5C 329.748,279.582 328.748,278.749 328.5,277C 331.854,272.218 335.854,271.385 340.5,274.5 Z"/></g>
<g><path style="opacity:1" fill="#6a9b67" d="M 375.5,271.5 C 374.449,272.222 373.782,273.222 373.5,274.5C 369.697,276.273 365.697,277.606 361.5,278.5C 360.295,279.577 359.628,280.91 359.5,282.5C 358.833,282.5 358.167,282.5 357.5,282.5C 353.204,283.463 348.871,283.629 344.5,283C 343.833,282.333 343.167,281.667 342.5,281C 345.992,281.07 348.992,280.237 351.5,278.5C 352.694,277.728 353.694,276.728 354.5,275.5C 357.857,275.784 360.191,274.451 361.5,271.5C 365.92,271.353 370.086,270.353 374,268.5C 377.108,269.331 376.941,270.164 373.5,271C 374.094,271.464 374.761,271.631 375.5,271.5 Z"/></g>
<g><path style="opacity:0.871" fill="#577353" d="M 373.5,274.5 C 369.167,277.669 364.5,280.336 359.5,282.5C 359.628,280.91 360.295,279.577 361.5,278.5C 365.697,277.606 369.697,276.273 373.5,274.5 Z"/></g>
<g><path style="opacity:0.271" fill="#385035" d="M 354.5,275.5 C 353.694,276.728 352.694,277.728 351.5,278.5C 350.183,278.821 348.849,279.154 347.5,279.5C 345.347,279.439 344.014,278.439 343.5,276.5C 345.17,276.751 346.67,277.418 348,278.5C 349.993,277.086 352.16,276.086 354.5,275.5 Z"/></g>
<g><path style="opacity:0.997" fill="#668f63" d="M 340.5,274.5 C 342.027,274.427 343.027,275.094 343.5,276.5C 344.014,278.439 345.347,279.439 347.5,279.5C 348.849,279.154 350.183,278.821 351.5,278.5C 348.992,280.237 345.992,281.07 342.5,281C 343.167,281.667 343.833,282.333 344.5,283C 348.871,283.629 353.204,283.463 357.5,282.5C 353.535,285.926 348.869,287.26 343.5,286.5C 339.164,284.668 335.164,282.335 331.5,279.5C 331.586,278.504 331.252,277.671 330.5,277C 333.101,273.35 336.435,272.516 340.5,274.5 Z"/></g>
<g><path style="opacity:0.11" fill="#2f462f" d="M 357.5,282.5 C 358.167,282.5 358.833,282.5 359.5,282.5C 354.94,287.221 349.606,288.554 343.5,286.5C 348.869,287.26 353.535,285.926 357.5,282.5 Z"/></g>
</svg>
